#!OML:ASF E:\emotionWalksFemale\Project 1\Capture day 1\Session 1\Female1.ASF
:FULLY-SPECIFIED
:DEGREES
1
root 8.80752 15.5494 21.0638 -179.473 -1.70097 -179.052
lowerback 8.83028 2.33174 2.20325
upperback -3.61883 3.36695 -0.0473595
thorax -8.66852 1.49836 -1.82668
lowerneck -3.70278 -4.59972 -9.2221
upperneck 8.62229 -6.5989 9.12819
head 3.77322 -3.27102 3.9771
rclavicle -2.02551e-014 -4.98204e-015
rhumerus -49.9971 -11.0458 -54.8729
rradius 32.0095
rwrist 30.9838
rhand -12.417 -54.0045
rfingers 7.12502
rthumb 13.6551 -83.5366
lclavicle -2.02551e-014 -4.98204e-015
lhumerus -48.5542 16.7041 45.707
lradius 34.1287
lwrist -9.79415
lhand -1.12899 -32.0851
lfingers 7.12502
lthumb 24.5086 -3.63336
rfemur 4.36901 18.15 27.9143
rtibia 9.04083
rfoot -13.0597 -32.6221
rtoes 4.15589
lfemur -5.55952 -22.4971 -21.9808
ltibia 23.199
lfoot -22.8592 17.0307
ltoes -13.0001
2
root 8.80512 15.5503 21.0637 -179.423 -1.54595 -179.185
lowerback 8.79464 2.3031 2.10058
upperback -3.62441 3.31264 -0.0745156
thorax -8.65999 1.47703 -1.78791
lowerneck -3.79785 -4.5828 -9.30205
upperneck 8.74389 -6.58342 9.21117
head 3.82932 -3.26161 4.01413
rclavicle 1.48623e-015 2.43511e-015
rhumerus -50.2031 -10.6474 -55.0217
rradius 31.8347
rwrist 30.7504
rhand -12.6738 -54.5699
rfingers 7.12502
rthumb 13.4076 -84.1184
lclavicle 1.48623e-015 2.43511e-015
lhumerus -49.0979 16.1714 45.8834
lradius 34.4444
lwrist -9.26428
lhand -1.26313 -32.3409
lfingers 7.12502
lthumb 24.38 -3.87184
rfemur 4.11738 18.3103 27.744
rtibia 9.48565
rfoot -13.6125 -32.5706
rtoes 4.65917
lfemur -5.46426 -22.5791 -22.1511
ltibia 22.9822
lfoot -22.8528 17.3007
ltoes -13.2677
3
root 8.8017 15.5516 21.066 -179.345 -1.38337 -179.307
lowerback 8.78248 2.28639 2.00239
upperback -3.66309 3.2765 -0.0833789
thorax -8.70114 1.46313 -1.73726
lowerneck -3.79902 -4.53637 -9.35403
upperneck 8.79039 -6.52195 9.21715
head 3.83941 -3.23324 4.02803
rclavicle 2.85194e-014 3.8266e-015
rhumerus -50.4911 -10.2936 -55.1382
rradius 31.7191
rwrist 30.8859
rhand -12.8102 -54.6341
rfingers 7.12502
rthumb 13.2762 -84.1913
lclavicle 2.85194e-014 3.8266e-015
lhumerus -49.5431 15.8663 45.9735
lradius 34.4039
lwrist -9.18061
lhand -1.56912 -32.4576
lfingers 7.12502
lthumb 24.0866 -3.9494
rfemur 3.91078 18.4832 27.5512
rtibia 9.71792
rfoot -13.9193 -32.5084
rtoes 5.42454
lfemur -5.48516 -22.6016 -22.2937
ltibia 22.9087
lfoot -22.8774 17.4837
ltoes -13.0584
4
root 8.80012 15.5511 21.0691 -179.337 -1.25167 -179.321
lowerback 8.84872 2.25741 1.98476
upperback -3.68662 3.23916 -0.0554844
thorax -8.7696 1.44501 -1.69597
lowerneck -3.79863 -4.48548 -9.363
upperneck 8.81245 -6.45262 9.19989
head 3.83903 -3.20029 4.0283
rclavicle -1.81795e-014 3.08116e-015
rhumerus -50.8925 -9.89145 -55.3071
rradius 31.6987
rwrist 31.2339
rhand -12.9604 -54.4509
rfingers 7.12502
rthumb 13.1314 -84.0174
lclavicle -1.81795e-014 3.08116e-015
lhumerus -50.0269 15.5573 46.1043
lradius 34.3427
lwrist -9.17983
lhand -1.75364 -33.0083
lfingers 7.12502
lthumb 23.9097 -4.47679
rfemur 3.79849 18.6155 27.5224
rtibia 9.88006
rfoot -13.9414 -32.5645
rtoes 5.61961
lfemur -5.45528 -22.6081 -22.3251
ltibia 22.8474
lfoot -22.9262 17.569
ltoes -12.6199
5
root 8.79942 15.5526 21.0741 -179.292 -1.21219 -179.268
lowerback 8.91861 2.23224 2.038
upperback -3.72355 3.21461 -0.042161
thorax -8.84966 1.42811 -1.71219
lowerneck -3.85517 -4.47783 -9.15282
upperneck 8.82914 -6.43252 9.01101
head 3.83913 -3.18908 3.93518
rclavicle -2.34504e-015 -7.45443e-016
rhumerus -51.3985 -9.58074 -55.5174
rradius 31.6966
rwrist 31.5562
rhand -12.7233 -54.5923
rfingers 7.12502
rthumb 13.3599 -84.1439
lclavicle -2.34504e-015 -7.45443e-016
lhumerus -50.3632 15.4007 46.1991
lradius 34.1965
lwrist -9.2868
lhand -1.62564 -33.8967
lfingers 7.12502
lthumb 24.0324 -5.38132
rfemur 3.66782 18.6621 27.5489
rtibia 9.96069
rfoot -13.922 -32.6148
rtoes 5.56074
lfemur -5.51466 -22.6827 -22.2351
ltibia 22.8279
lfoot -23.1051 17.6001
ltoes -12.3847
6
root 8.79715 15.5567 21.0788 -179.192 -1.16674 -179.271
lowerback 8.94462 2.20666 2.0265
upperback -3.78065 3.18113 -0.0104571
thorax -8.9309 1.41063 -1.66962
lowerneck -3.90011 -4.45467 -8.97767
upperneck 8.83638 -6.37666 8.73269
head 3.82974 -3.16394 3.82264
rclavicle -4.68697e-014 -1.09332e-014
rhumerus -51.7688 -9.2451 -55.7814
rradius 31.5781
rwrist 31.8444
rhand -12.0249 -55.1346
rfingers 7.12502
rthumb 14.033 -84.6409
lclavicle -4.68697e-014 -1.09332e-014
lhumerus -50.7535 15.3511 46.377
lradius 34.0649
lwrist -9.44612
lhand -1.58336 -34.3239
lfingers 7.12502
lthumb 24.073 -5.81391
rfemur 3.52803 18.7214 27.4929
rtibia 9.96758
rfoot -13.8331 -32.624
rtoes 5.27743
lfemur -5.6474 -22.7327 -22.1895
ltibia 22.8338
lfoot -23.1592 17.6666
ltoes -12.4622
